<svg xmlns="http://www.w3.org/2000/svg" xmlns:xlink="http://www.w3.org/1999/xlink" viewBox="0 0 883.23 833.85"><defs><style>.cls-1{isolation:isolate;}.cls-19,.cls-2,.cls-21{opacity:0.1;}.cls-10,.cls-19,.cls-20,.cls-22,.cls-23,.cls-24,.cls-3,.cls-7,.cls-8{fill:none;}.cls-10,.cls-22,.cls-23,.cls-24,.cls-3,.cls-8{stroke:#fff;}.cls-10,.cls-22,.cls-23,.cls-24,.cls-3{stroke-linecap:round;stroke-linejoin:round;}.cls-3{stroke-dasharray:4;}.cls-21,.cls-25,.cls-4,.cls-9{fill:#fff;}.cls-4,.cls-6{opacity:0.5;}.cls-5{fill:#75b1d2;}.cls-6{fill:#90d5fd;}.cls-7{stroke:#8a99d4;}.cls-7,.cls-8{stroke-miterlimit:10;}.cls-11,.cls-30{opacity:0.2;}.cls-12{fill:#dce5e3;}.cls-13{fill:#393939;}.cls-14{fill:#a8cfd6;}.cls-15{fill:#4b4b4a;}.cls-16{fill:#f4b298;}.cls-17{fill:#ff8a5c;}.cls-18,.cls-25{opacity:0.4;}.cls-22{stroke-dasharray:3.92 3.92;}.cls-23{stroke-dasharray:4.1 4.1;}.cls-24{stroke-dasharray:4.05 4.05;}.cls-26,.cls-27{opacity:0.6;}.cls-26,.cls-27,.cls-34,.cls-35{mix-blend-mode:multiply;}.cls-26{fill:url(#linear-gradient);}.cls-27{fill:url(#linear-gradient-2);}.cls-28{fill:#133133;}.cls-29{fill:#185256;}.cls-30{fill:#1d1d1b;}.cls-31{fill:#80989d;}.cls-32{fill:#f7b7a9;}.cls-33{fill:#bf9d5f;}.cls-34{fill:url(#linear-gradient-3);}.cls-35{fill:url(#linear-gradient-4);}.cls-36{fill:#0d343a;}.cls-37{fill:#005664;}.cls-38{opacity:0.07;}.cls-39{fill:#f7cdb4;}.cls-40{fill:#3098a4;}.cls-41{opacity:0.15;}.cls-42{fill:#ffc340;}.cls-43{fill:#544749;}</style><linearGradient id="linear-gradient" x1="950.53" y1="574.09" x2="976.86" y2="558.4" gradientTransform="matrix(-1, 0, 0, 1, 1576.17, -107.42)" gradientUnits="userSpaceOnUse"><stop offset="0" stop-color="#b2b2b2"/><stop offset="1" stop-color="#fff"/></linearGradient><linearGradient id="linear-gradient-2" x1="927.32" y1="583.39" x2="953.65" y2="567.7" xlink:href="#linear-gradient"/><linearGradient id="linear-gradient-3" x1="289.79" y1="592.95" x2="261.77" y2="577.12" gradientTransform="matrix(1, 0, 0, 1, 0, 0)" xlink:href="#linear-gradient"/><linearGradient id="linear-gradient-4" x1="267.27" y1="600.93" x2="242.41" y2="586.47" gradientTransform="matrix(1, 0, 0, 1, 0, 0)" xlink:href="#linear-gradient"/></defs><title>图2</title><g class="cls-1"><g id="图层_1" data-name="图层 1"><path class="cls-2" d="M605.44,816.89l416.92-240.3c6.07-3.51,14.23-5.44,23-5.44s16.85,1.93,22.87,5.43l166.66,96.85c5.34,3.1,8.28,7,8.28,11s-3,8-8.43,11.11L817.78,935.84c-6.07,3.5-14.23,5.44-23,5.44s-16.86-1.93-22.89-5.44L605.28,839c-5.34-3.1-8.28-7-8.27-11S600,820,605.44,816.89Z" transform="translate(-474.5 -107.42)"/><path class="cls-3" d="M571.73,420.3s36.07-32.59,72.14-37.16v76s-47.28,16.25-70.57,42.09Z" transform="translate(-474.5 -107.42)"/><path class="cls-4" d="M677.77,220.05V413s165.65-64.91,380.94-20.71v-198S846.4,147.35,677.77,220.05Z" transform="translate(-474.5 -107.42)"/><path class="cls-5" d="M711.87,298.29v79.85c4.62-1.31,9.73-2.7,15.32-4.13V294.16Q718.81,296.3,711.87,298.29Z" transform="translate(-474.5 -107.42)"/><path class="cls-5" d="M741.61,256V370.51c4.85-1.11,10-2.24,15.32-3.35V252.61Q748.89,254.27,741.61,256Z" transform="translate(-474.5 -107.42)"/><path class="cls-5" d="M771.35,265.89v98.45q7.41-1.38,15.32-2.68V263.22C781.39,264.08,776.29,265,771.35,265.89Z" transform="translate(-474.5 -107.42)"/><path class="cls-5" d="M801.09,226.31V359.45c5-.71,10.09-1.4,15.33-2V224.26Q808.56,225.24,801.09,226.31Z" transform="translate(-474.5 -107.42)"/><path class="cls-5" d="M830.84,241.22V355.78q7.51-.78,15.32-1.43V239.79Q838.35,240.44,830.84,241.22Z" transform="translate(-474.5 -107.42)"/><path class="cls-5" d="M860.58,271v82.33q7.54-.48,15.32-.83V270.11Q868.13,270.47,860.58,271Z" transform="translate(-474.5 -107.42)"/><path class="cls-5" d="M890.32,279.52v72.42c5-.13,10.15-.22,15.33-.25V279.27C900.47,279.31,895.37,279.39,890.32,279.52Z" transform="translate(-474.5 -107.42)"/><path class="cls-5" d="M920.07,258.25v93.49q7.57.09,15.32.35V258.6C930.23,258.44,925.12,258.31,920.07,258.25Z" transform="translate(-474.5 -107.42)"/><path class="cls-5" d="M949.81,238.14V352.7q7.59.39,15.32.94V239.08Q957.41,238.53,949.81,238.14Z" transform="translate(-474.5 -107.42)"/><path class="cls-5" d="M979.55,288.6v66.22c5.07.46,10.17,1,15.32,1.54V290.14C989.72,289.56,984.62,289.06,979.55,288.6Z" transform="translate(-474.5 -107.42)"/><path class="cls-5" d="M1009.3,358.12q7.61,1,15.32,2.15V307.69q-7.72-1.17-15.32-2.16Z" transform="translate(-474.5 -107.42)"/><path class="cls-6" d="M1091.28,203.11V288.6s88.64,16.11,133.86,63.21v-81.7S1193.53,224.6,1091.28,203.11Z" transform="translate(-474.5 -107.42)"/><path class="cls-6" d="M1091.28,305.17v95.46s72.1,16.23,133.86,59.5v-88S1193.53,326.65,1091.28,305.17Z" transform="translate(-474.5 -107.42)"/><polyline class="cls-7" points="626.91 170.04 639.3 126.67 643.43 148.36 655 132.37 659.13 170.04 678.13 148.36 688.05 170.04 699.62 155.79 707.57 162.61 716.86 154.87 722.7 206.35 731.84 190.36 735.97 198.1 746.98 181.17"/><polyline class="cls-7" points="626.91 247.95 633.52 264.17 648.39 242.85 659.96 254.94 667.39 250.45 667.39 262.37 679.79 254.94 686.94 270.87 693.83 264.17 700.44 275.19 707.05 266.97 714.49 280.66 722.7 259 726.88 280.66 734.32 264.17 740.1 307.6"/><path class="cls-8" d="M1221.48,813.26s12.12-165.51,61.69-124.07c0,0,22.31,18.42,21.49-20.05,0,0,4.95-115.53,24.78-95.18s17.35,90.15,17.35,90.15" transform="translate(-474.5 -107.42)"/><path class="cls-7" d="M1225.14,721.6s20.86,57,39,36.3c0,0,11.57-36.5,24.79-98.39,0,0,10.74-59.3,38.83,9.63,0,0,9.07,17.59,19.1,8.2" transform="translate(-474.5 -107.42)"/><polyline class="cls-8" points="626.91 274.16 636 270.44 644.05 277.88 653.97 274.16 665.12 288.36 680.61 279.4 683.71 290.35 689.91 288.01 694.25 304.22 699.2 291.08 709.74 302.43 722.7 295 732.04 302.43 742.58 315.25"/><polyline class="cls-8" points="626.91 141.54 636.62 170.04 642.81 155.79 650.87 162.69 665.12 146.5 675.04 166.51 693.01 137.83 704.16 147.74 718.41 146.5 728.95 176.24 742.58 171.85"/><path class="cls-9" d="M611,598.75a477,477,0,0,1-60.36-41.61v12.94A492.18,492.18,0,0,0,611,610.38Z" transform="translate(-474.5 -107.42)"/><path class="cls-9" d="M611,624.49a477,477,0,0,1-60.36-41.7v13A492.78,492.78,0,0,0,611,636.12Z" transform="translate(-474.5 -107.42)"/><path class="cls-9" d="M611,650.22a476.53,476.53,0,0,1-60.36-41.78v13A492.46,492.46,0,0,0,611,661.85Z" transform="translate(-474.5 -107.42)"/><path class="cls-9" d="M611,676a477.2,477.2,0,0,1-60.36-41.87v13A493.14,493.14,0,0,0,611,687.59Z" transform="translate(-474.5 -107.42)"/><path class="cls-9" d="M550.6,659.75h0v13A492.6,492.6,0,0,0,611,713.32V701.69A475.86,475.86,0,0,1,550.6,659.75Z" transform="translate(-474.5 -107.42)"/><path class="cls-9" d="M526.06,624.53c-19.45-11.33-18.63-28.65-36.14-42.84V593.6c17.58,13.69,16.73,30.65,36.14,41.63Z" transform="translate(-474.5 -107.42)"/><path class="cls-9" d="M526.06,648.2c-19.46-11.36-18.64-28.7-36.14-42.92V617.2c17.58,13.72,16.73,30.7,36.14,41.7Z" transform="translate(-474.5 -107.42)"/><path class="cls-9" d="M526.06,671.87c-19.46-11.38-18.64-28.75-36.14-43V640.8c17.58,13.75,16.73,30.74,36.14,41.76Z" transform="translate(-474.5 -107.42)"/><path class="cls-9" d="M526.06,695.54c-19.46-11.41-18.64-28.8-36.14-43.07V664.4c17.57,13.77,16.73,30.79,36.14,41.83Z" transform="translate(-474.5 -107.42)"/><path class="cls-9" d="M489.93,676.07h0V688c17.57,13.8,16.73,30.84,36.14,41.91V719.2C506.6,707.78,507.42,690.36,489.93,676.07Z" transform="translate(-474.5 -107.42)"/><polygon class="cls-10" points="121.6 159.06 154.51 207.93 128.33 222.51 121.6 159.06"/><polygon class="cls-10" points="154.51 207.93 128.33 222.51 100.4 221.11 125.84 199.04 154.51 207.93"/><polygon class="cls-10" points="100.4 221.11 121.6 159.06 128.33 222.51 100.4 221.11"/><polygon class="cls-10" points="100.48 226.15 131.13 227.64 133.3 269.58 100.48 226.15"/><polygon class="cls-10" points="131.13 227.64 154.58 212.95 133.3 269.58 131.13 227.64"/><path class="cls-10" d="M600.42,444.87a47.93,47.93,0,0,1,16.28-8.3" transform="translate(-474.5 -107.42)"/><line class="cls-10" x1="134.06" y1="324.27" x2="134.06" y2="342.32"/><path class="cls-10" d="M1256.74,314.91v16.64s30,24.93,37.18,40.6V351.59S1275.33,327.12,1256.74,314.91Z" transform="translate(-474.5 -107.42)"/><path class="cls-10" d="M1266.19,361.31v36.08s34.7,30.18,37.18,41.84v-40S1284.78,376.62,1266.19,361.31Z" transform="translate(-474.5 -107.42)"/><path class="cls-10" d="M1256.74,285.67v16.64s34.7,28.94,37.18,40.6V322.35S1275.33,297.88,1256.74,285.67Z" transform="translate(-474.5 -107.42)"/><path class="cls-11" d="M620.23,723.26a17.17,17.17,0,0,1,2.21-1.57L993.59,506.63a56.65,56.65,0,0,1,57.22-.07l154.54,90.34c6.32,3.56,12.47,7.88,12.47,22.19,0,8-4.84,15.6-9.26,18.6a17.5,17.5,0,0,1-2.18,1.51L833.87,852.72a56.64,56.64,0,0,1-56.53-.07L622.55,763.28c-.47-.27-.9-.58-1.33-.88-5.35-3.41-10-8.3-10-20.72C611.24,733.8,615.89,726.38,620.23,723.26Z" transform="translate(-474.5 -107.42)"/><path class="cls-12" d="M624.1,708.8c2.8,0,4.46,3.59,5.37,8.59L991.83,505.55c18-10.54,43.91-7.83,57.22-.06l150.58,87.89c1.08-6.24,3-10.9,5.62-9.44,6.36,3.58,12.57,7.87,12.57,22.25,0,8.51-5.41,16.4-10,19a14.25,14.25,0,0,1-1.43,1.1L833.87,839.81a56.62,56.62,0,0,1-56.53-.06L622.55,750.38c-.2-.11-.33-.28-.52-.4-5.69-3.43-10.79-8.17-10.79-21.2C611.24,718.4,619.31,708.8,624.1,708.8Z" transform="translate(-474.5 -107.42)"/><path class="cls-13" d="M622.44,708.79,993.59,493.73a56.65,56.65,0,0,1,57.22-.07l155.68,91a16.71,16.71,0,0,1-.11,28.92L833.87,827.1a56.64,56.64,0,0,1-56.53-.06L622.55,737.67A16.71,16.71,0,0,1,622.44,708.79Z" transform="translate(-474.5 -107.42)"/><polygon class="cls-9" points="721.17 500.18 347.3 714.48 160.16 606.43 532.4 391.19 721.17 500.18"/><polygon class="cls-5" points="533.27 608.65 347.3 714.48 160.16 606.43 344.51 499.66 533.27 608.65"/><polygon class="cls-5" points="721.17 500.18 690.06 518.14 500.75 408.71 532.4 391.19 721.17 500.18"/><path class="cls-14" d="M727.3,743.64l33.24-19.18a6.93,6.93,0,0,1,7,0l33.19,19.21a3.1,3.1,0,0,1,0,5.35l-32.77,19.53a7,7,0,0,1-7.05,0L727.29,749A3.11,3.11,0,0,1,727.3,743.64Z" transform="translate(-474.5 -107.42)"/><path class="cls-14" d="M784.72,776.33,818,757.14a6.91,6.91,0,0,1,6.94,0l33.2,19.21a3.1,3.1,0,0,1,0,5.35l-32.77,19.53a7,7,0,0,1-7.05,0l-33.6-19.58A3.1,3.1,0,0,1,784.72,776.33Z" transform="translate(-474.5 -107.42)"/><path class="cls-14" d="M669.89,711l33.23-19.19a7,7,0,0,1,7,0L743.26,711a3.1,3.1,0,0,1,0,5.35l-32.78,19.53a6.93,6.93,0,0,1-7,0l-33.59-19.58A3.09,3.09,0,0,1,669.89,711Z" transform="translate(-474.5 -107.42)"/><path class="cls-15" d="M1093.93,533.59a10.38,10.38,0,0,1,9.43,0l16.87,9.74c2.61,1.5,2.62,3.95,0,5.46a10.44,10.44,0,0,1-9.43,0L1094,539.05C1091.35,537.54,1091.34,535.09,1093.93,533.59Z" transform="translate(-474.5 -107.42)"/><path class="cls-14" d="M796.2,655.19l19.89-11.49a6.06,6.06,0,0,1,5.5,0L935.83,710c1.53.88,1.53,2.31,0,3.18l-19.65,11.35a6,6,0,0,1-5.48,0l-114.49-66.1C794.68,657.5,794.68,656.07,796.2,655.19Z" transform="translate(-474.5 -107.42)"/><path class="cls-16" d="M1005.76,565.57l.77.15.77.07c1.49.27,3,.56,4.45.86l1.61.34,1.42.3c1.48.34,3,.67,4.32,1.08l.9.23,2.25.63c1.23.41,2.45.75,3.55,1.16l.64.23c1.09.33,2,.7,3,1.08.83.34,1.74.63,2.51,1l.77.3,3.35,1.49,1.67.82.51.23.58.33c1.1.57,2.13,1.16,3.16,1.69l1,.63,1.61,1c.9.52,1.73,1.08,2.57,1.65l.71.48,2.05,1.65a20.39,20.39,0,0,1,1.67,1.34l.71.56c.77.67,1.47,1.38,2.18,2.09l1.09,1,.7.86c.65.68,1.29,1.42,1.86,2.13l.2.27.7.85.51.83a22.4,22.4,0,0,1,1.28,1.94,15.49,15.49,0,0,1,1,1.68l.19.26c.32.64.58,1.31,1,2s.63,1.49,1,2.35l.44,1.61c.19.78.44,1.53.63,2.31l.12.75.13,1.12c.06.86.18,1.68.18,2.58l.06.79-.08,1.23c0,.82-.07,1.68-.14,2.54l-.13.6-.33,1.61c-.2.71-.33,1.45-.53,2.16l-.2.49a23.28,23.28,0,0,1-.85,2.2l-.59,1.46-.26.6c-.46.86-.91,1.72-1.5,2.65l-.45.71-.65,1c-.53.83-1.18,1.65-1.76,2.43l-.39.45-1.24,1.46-1.88,2-.32.34-2.08,1.87-1.62,1.38-.58.41a28.64,28.64,0,0,1-2.72,2l-1.17.82-1.1.71c-.65.45-1.29.82-2,1.23L1014.32,626l.33-.26.58-.34,1.16-.9.39-.22.26-.3.52-.37.52-.45,1-.79.26-.3.39-.29.71-.86.33-.41.39-.53.19-.26.26-.22.78-1.12.26-.53.2-.26.59-.86.39-1.27.13-.3.39-1,.14-.6.06-.34.14-1,.06-.34v-.22l.06-.71v-1.35l.07-.93-.44-1.31-.07-.26-.12-.6-.32-.71-.13-.67-.19-.41-.19-.41-.38-.6-.39-.75-.31-.56-.2-.26-.7-1.24-.84-.78-.57-.64-.58-.56-.64-.59-.19-.19-.39-.3-.9-.82-.32-.26-.58-.49-1.22-.78-.32-.27-1.48-1-1.22-.56-.32-.18-.71-.41-1.67-.68-.32-.18-.46-.19-.77-.3-.64-.3-1.29-.52-.51-.15-.58-.19-1.55-.45-.77-.22-.78-.22-.51-.15-.39-.08-1.8-.45-.9-.15-.45-.11-1.55-.37-1.67-.16Z" transform="translate(-474.5 -107.42)"/><path class="cls-17" d="M990.53,633.21l.46,0,1-.08,1.23-.18,1.09-.12.72-.11.7-.11,1.17-.22,1.22-.19.91-.23.45-.11,2.13-.41,1.49-.49,1-.37,1-.26,1-.41.39-.08.45-.18,1.49-.56.46-.27.83-.33,1.24-.64.51-.22,1.81-.82,1-.75,28.55,16.59-1,.68-.78.44-2,1.09-2.85,1.42-.71.34c-1,.48-1.94.89-3,1.34l-2.26.93-.84.34c-1.3.45-2.53.94-3.88,1.35l-1.68.59-1.17.38c-1,.26-1.81.52-2.71.75l-1.49.41-1.68.44-1.16.3-3.81.86-2.84.53c-1.23.26-2.52.41-3.81.63s-2.52.41-3.94.56l-2.91.26c-1.29.15-2.64.27-4,.38l-1.16.07-1.94.08-1.61,0-3-23.43,1.74,0Z" transform="translate(-474.5 -107.42)"/><path class="cls-14" d="M905.32,607l.13-.68.27-1.64c.2-.71.4-1.35.53-2l.2-.63c.26-.75.59-1.46.78-2.17l.66-1.35.32-.78,1.37-2.36.2-.41.26-.45.78-1.12c.58-.78,1.1-1.53,1.75-2.28l.33-.48c.45-.56,1-1.09,1.36-1.61.65-.6,1.17-1.2,1.75-1.83l.39-.38c.72-.63,1.43-1.27,2.21-1.94l1.36-1.23.65-.45c.91-.75,1.88-1.46,2.85-2.17l1-.71,1.1-.71c1-.67,2.14-1.31,3.24-1.94l.65-.38.51-.29,1.56-.83a29.33,29.33,0,0,1,3-1.49l.39-.23c1-.44,2.07-.89,3.17-1.38.78-.3,1.49-.63,2.33-1l.58-.19c1.29-.52,2.65-1,4-1.49l1.81-.6,1-.26c1.42-.45,2.78-.86,4.26-1.27l1.75-.41,1-.27c1.29-.29,2.58-.59,3.94-.85l2.78-.57c1.29-.22,2.58-.44,3.94-.63s2.58-.38,3.94-.56l2.84-.3c1.48-.11,2.84-.22,4.26-.37l1.09,0,1.68-.08c1.68-.07,3.29-.11,4.9-.15h1l2,0c1.55,0,3.16,0,4.84.11h.64l2.84.23c1.29.07,2.65.19,3.93.33l.58,0c1.29.15,2.58.3,3.81.49l2,.26-11.22,22.64-.65-.07-.45,0-1.68-.23-1-.07-.65-.08-1.74,0-1-.07-1.1,0-1.1,0-1.22,0h-1.68l-2.19.23-.52.07-1,0-1.22.19-1.17.14-.71.12-.77.07-1.1.19-1.16.22-1,.26-.45,0-2.2.45-1.36.49-1,.37-1,.3-1.29.45-.45.18-1.49.57-.52.22-.84.33-1.36.72-.32.18-1.81.83-1,.74-.32.26-.65.38-1.17.89-.32.19-.26.23-.52.44-.52.45-1,.79-.32.33-.33.26-.65.83-.39.45-.39.44-.26.3-.19.27-.85,1.08-.45.78-.59.86-.33,1.31-.13.3-.39,1-.13.59-.07.34-.2.94v.59l-.14.68.07.71v.67l-.07.93.38,1.27.13.3.13.6.25.75.19.63.19.41.19.42.39.59.31.71.39.6.19.26.7,1.24.77.82.64.6.52.59.64.53.26.22.25.3,1,.79.38.3.58.48,1.22.79.32.26,1.42,1,1.28.6.32.18.71.42,1.61.71.39.14.45.19.64.3.77.3,1.29.52.52.15.58.19,1.54.45.78.22.7.19.52.15.45.11,1.8.45.84.19.52.07,1.54.37,2.2.23.58,0,1.67.22,1,.08.58,0,1.8.08,1,0,1.16.08,1.1,0h1.16l3,23.43-3,.08-1.35,0-1.87,0c-1.55,0-3.1,0-4.65-.07l-1,0-2.71-.23c-1.29-.07-2.51-.18-3.87-.3l-.77-.07c-1.29-.15-2.51-.34-3.81-.49l-2.57-.37-1-.15-1.55-.3-2.64-.48-1.62-.34-1.67-.37c-1.42-.3-2.77-.64-4.12-1.05l-.84-.19c-.84-.26-1.68-.52-2.58-.75-1.09-.33-2.25-.71-3.35-1l-.51-.23c-1.16-.37-2.26-.78-3.35-1.19l-2.32-.9-.64-.3a36.05,36.05,0,0,1-3.54-1.61l-1.42-.67-1.16-.6c-1.09-.56-2.25-1.15-3.34-1.79l-.77-.45-1.74-1.08-2.57-1.72-.51-.37c-.77-.6-1.48-1.16-2.32-1.73a19.13,19.13,0,0,0-1.67-1.34l-.51-.52c-.84-.71-1.54-1.42-2.31-2.17l-1.09-1-.58-.71c-.7-.78-1.35-1.53-2-2.35l-.84-1-.45-.71a15.13,15.13,0,0,1-1.4-2.17l-1-1.72c-.38-.67-.7-1.46-1-2.17a19.16,19.16,0,0,1-.82-2l-.13-.3-.51-1.72c-.12-.67-.38-1.34-.5-2.09l-.19-.86-.12-.9-.07-.26c-.06-.78-.12-1.64-.18-2.43l-.06-.93.07-1.16C905.18,608.66,905.19,607.84,905.32,607Z" transform="translate(-474.5 -107.42)"/><polygon class="cls-14" points="521.71 480.94 520.03 480.79 520.04 480.78 521.71 480.94"/><g class="cls-18"><path class="cls-19" d="M1355.06,804.49c.89-1,1.8-1.91,2.67-2.88C1356.86,802.58,1356,803.53,1355.06,804.49Z" transform="translate(-474.5 -107.42)"/><path class="cls-19" d="M531.52,806.74c-.86-.88-1.68-1.77-2.51-2.66C529.84,805,530.66,805.86,531.52,806.74Z" transform="translate(-474.5 -107.42)"/><path class="cls-19" d="M483.55,730.91c-.33-1-.63-2-.94-3C482.92,728.92,483.22,729.91,483.55,730.91Z" transform="translate(-474.5 -107.42)"/><path class="cls-19" d="M485.72,737c-.37-1-.72-2-1.07-3C485,735,485.35,736,485.72,737Z" transform="translate(-474.5 -107.42)"/><path class="cls-19" d="M526.3,801.19c-.81-.9-1.6-1.8-2.39-2.71C524.7,799.39,525.49,800.29,526.3,801.19Z" transform="translate(-474.5 -107.42)"/><path class="cls-19" d="M1354.91,810c.94-1,1.9-1.9,2.82-2.86C1356.81,808.09,1355.85,809,1354.91,810Z" transform="translate(-474.5 -107.42)"/><path class="cls-19" d="M488.14,743c-.42-1-.8-2-1.19-3C487.34,741,487.72,742,488.14,743Z" transform="translate(-474.5 -107.42)"/><path class="cls-19" d="M542.7,817.67c-.93-.85-1.81-1.72-2.72-2.58C540.89,816,541.77,816.82,542.7,817.67Z" transform="translate(-474.5 -107.42)"/><path class="cls-19" d="M537,812.24c-.89-.87-1.75-1.76-2.63-2.64C535.23,810.48,536.09,811.37,537,812.24Z" transform="translate(-474.5 -107.42)"/><path class="cls-19" d="M496.93,760.87c-.54-1-1.05-1.93-1.57-2.89C495.88,758.94,496.39,759.91,496.93,760.87Z" transform="translate(-474.5 -107.42)"/><path class="cls-19" d="M512.19,784.2c-.7-.93-1.36-1.87-2.05-2.81C510.83,782.33,511.49,783.27,512.19,784.2Z" transform="translate(-474.5 -107.42)"/><path class="cls-19" d="M481.64,724.83c-.29-1-.55-2-.82-3C481.09,722.84,481.35,723.84,481.64,724.83Z" transform="translate(-474.5 -107.42)"/><path class="cls-20" d="M475.89,694.23c-.09-1-.14-2-.21-3C475.75,692.22,475.8,693.22,475.89,694.23Z" transform="translate(-474.5 -107.42)"/><path class="cls-19" d="M508,778.43c-.66-.94-1.28-1.89-1.92-2.83C506.71,776.54,507.33,777.49,508,778.43Z" transform="translate(-474.5 -107.42)"/><path class="cls-20" d="M476.53,700.37c-.13-1-.22-2-.33-3C476.31,698.36,476.4,699.37,476.53,700.37Z" transform="translate(-474.5 -107.42)"/><path class="cls-19" d="M504.05,772.62c-.62-1-1.21-1.9-1.81-2.85C502.84,770.72,503.43,771.67,504.05,772.62Z" transform="translate(-474.5 -107.42)"/><path class="cls-19" d="M478.58,712.63c-.21-1-.39-2-.58-3C478.19,710.63,478.37,711.63,478.58,712.63Z" transform="translate(-474.5 -107.42)"/><path class="cls-20" d="M477.43,706.51c-.17-1-.31-2-.46-3C477.12,704.5,477.26,705.5,477.43,706.51Z" transform="translate(-474.5 -107.42)"/><path class="cls-20" d="M475.5,688.08c-.05-1-.06-2-.08-3C475.44,686.07,475.45,687.08,475.5,688.08Z" transform="translate(-474.5 -107.42)"/><path class="cls-19" d="M493.74,754.94c-.49-1-1-1.94-1.44-2.91C492.78,753,493.25,754,493.74,754.94Z" transform="translate(-474.5 -107.42)"/><path class="cls-19" d="M1354.49,826.09c1.08-.93,2.18-1.85,3.24-2.78C1356.67,824.24,1355.57,825.16,1354.49,826.09Z" transform="translate(-474.5 -107.42)"/><path class="cls-19" d="M521.35,795.58c-.78-.91-1.53-1.83-2.29-2.74C519.82,793.75,520.57,794.67,521.35,795.58Z" transform="translate(-474.5 -107.42)"/><path class="cls-19" d="M1354.34,831.33c1.13-.92,2.28-1.83,3.39-2.76C1356.62,829.5,1355.47,830.41,1354.34,831.33Z" transform="translate(-474.5 -107.42)"/><path class="cls-19" d="M1354.62,820.8c1-.94,2.09-1.88,3.11-2.82C1356.71,818.92,1355.66,819.86,1354.62,820.8Z" transform="translate(-474.5 -107.42)"/><path class="cls-19" d="M558.37,831.14l1.27,1h0Z" transform="translate(-474.5 -107.42)"/><path class="cls-19" d="M516.64,789.91c-.74-.92-1.45-1.85-2.17-2.78C515.19,788.06,515.9,789,516.64,789.91Z" transform="translate(-474.5 -107.42)"/><path class="cls-19" d="M500.36,766.76c-.58-1-1.12-1.91-1.68-2.87C499.24,764.85,499.78,765.81,500.36,766.76Z" transform="translate(-474.5 -107.42)"/><path class="cls-19" d="M554.9,828.34c-1-.83-1.95-1.66-2.92-2.49C553,826.68,553.91,827.51,554.9,828.34Z" transform="translate(-474.5 -107.42)"/><path class="cls-19" d="M1357.73,812.58c-1,1-2,1.91-3,2.86C1355.75,814.49,1356.76,813.54,1357.73,812.58Z" transform="translate(-474.5 -107.42)"/><path class="cls-19" d="M480,718.74c-.25-1-.47-2-.7-3C479.51,716.74,479.73,717.74,480,718.74Z" transform="translate(-474.5 -107.42)"/><path class="cls-19" d="M490.82,749c-.46-1-.88-2-1.32-2.92C489.94,747,490.36,748,490.82,749Z" transform="translate(-474.5 -107.42)"/><path class="cls-19" d="M548.67,823c-.95-.84-1.88-1.69-2.82-2.53C546.79,821.35,547.72,822.2,548.67,823Z" transform="translate(-474.5 -107.42)"/><path class="cls-21" d="M1357.73,848.88c-1.48,1-3,2-4.53,3C1354.72,850.87,1356.25,849.88,1357.73,848.88Z" transform="translate(-474.5 -107.42)"/><path class="cls-21" d="M1357.73,843.92c-1.37,1-2.78,1.93-4.18,2.9C1355,845.85,1356.36,844.89,1357.73,843.92Z" transform="translate(-474.5 -107.42)"/><path class="cls-21" d="M1357.73,838.87c-1.26,1-2.57,1.89-3.86,2.83C1355.16,840.76,1356.47,839.82,1357.73,838.87Z" transform="translate(-474.5 -107.42)"/><path class="cls-21" d="M559.64,832.16c.59.47,1.15.94,1.74,1.4-.59-.46-1.15-.93-1.74-1.4Z" transform="translate(-474.5 -107.42)"/><path class="cls-21" d="M1357.73,833.76c-1.18.94-2.41,1.86-3.62,2.79C1355.32,835.62,1356.55,834.7,1357.73,833.76Z" transform="translate(-474.5 -107.42)"/><path class="cls-21" d="M1357.73,853.76c-1.63,1-3.31,2.08-5,3.12C1354.42,855.84,1356.1,854.81,1357.73,853.76Z" transform="translate(-474.5 -107.42)"/><path class="cls-21" d="M582.34,848.79c-1.06-.72-2.09-1.45-3.14-2.17C580.25,847.34,581.28,848.07,582.34,848.79Z" transform="translate(-474.5 -107.42)"/><path class="cls-21" d="M589.84,853.7c-1.05-.67-2.07-1.36-3.11-2C587.77,852.34,588.79,853,589.84,853.7Z" transform="translate(-474.5 -107.42)"/><path class="cls-21" d="M1357.73,858.55q-3.88,2.38-7.89,4.71Q1353.85,860.94,1357.73,858.55Z" transform="translate(-474.5 -107.42)"/><path class="cls-21" d="M597.59,858.53c-1-.6-1.93-1.21-2.9-1.81C595.66,857.32,596.61,857.93,597.59,858.53Z" transform="translate(-474.5 -107.42)"/><path class="cls-21" d="M568.11,838.72c-1-.78-2.05-1.57-3.07-2.36C566.06,837.15,567.07,837.94,568.11,838.72Z" transform="translate(-474.5 -107.42)"/><path class="cls-21" d="M575.1,843.79c-1.05-.75-2.07-1.5-3.11-2.26C573,842.29,574.05,843,575.1,843.79Z" transform="translate(-474.5 -107.42)"/><path class="cls-21" d="M559.64,832.16l-1.27-1c-1.16-.94-2.33-1.86-3.47-2.8s-1.95-1.66-2.92-2.49-2.23-1.87-3.31-2.81-1.88-1.69-2.82-2.53-2.12-1.89-3.15-2.84-1.81-1.72-2.72-2.58-2-1.89-3-2.85-1.75-1.76-2.63-2.64-1.91-1.9-2.83-2.86-1.68-1.77-2.51-2.66-1.83-1.92-2.71-2.89-1.6-1.8-2.39-2.71-1.73-1.93-2.56-2.9-1.53-1.83-2.29-2.74-1.63-2-2.42-2.93-1.45-1.85-2.17-2.78-1.54-2-2.28-2.93-1.36-1.87-2.05-2.81-1.45-2-2.15-3-1.28-1.89-1.92-2.83-1.37-2-2-3-1.21-1.9-1.81-2.85-1.27-2-1.88-3-1.12-1.91-1.68-2.87-1.19-2-1.75-3-1.05-1.93-1.57-2.89-1.1-2-1.62-3-1-1.94-1.44-2.91-1-2-1.48-3.06-.88-2-1.32-2.92-.93-2-1.36-3.07-.8-2-1.19-3-.84-2-1.23-3.07-.72-2-1.07-3-.75-2.05-1.1-3.07-.63-2-.94-3-.67-2.06-1-3.1-.55-2-.82-3-.58-2.07-.84-3.11-.47-2-.7-3-.49-2.07-.7-3.11-.39-2-.58-3-.4-2.08-.57-3.12-.31-2-.46-3-.31-2.08-.44-3.12-.22-2-.33-3-.23-2.09-.31-3.13-.14-2-.21-3-.14-2.08-.18-3.13-.06-2-.08-3-.06-2.09-.06-3.13c0-.21,0-.41,0-.62" transform="translate(-474.5 -107.42)"/><path class="cls-21" d="M498.68,763.89c-.59-1-1.19-2-1.75-3C497.49,761.88,498.09,762.89,498.68,763.89Z" transform="translate(-474.5 -107.42)"/><path class="cls-21" d="M502.24,769.77c-.63-1-1.27-2-1.88-3C501,767.77,501.61,768.77,502.24,769.77Z" transform="translate(-474.5 -107.42)"/><path class="cls-21" d="M495.36,758c-.54-1-1.1-2-1.62-3C494.26,756,494.82,757,495.36,758Z" transform="translate(-474.5 -107.42)"/><path class="cls-21" d="M519.06,792.84c-.81-1-1.63-2-2.42-2.93C517.43,790.89,518.25,791.86,519.06,792.84Z" transform="translate(-474.5 -107.42)"/><path class="cls-21" d="M540,815.09c-1-1-2-1.89-3-2.85C538,813.2,539,814.14,540,815.09Z" transform="translate(-474.5 -107.42)"/><path class="cls-21" d="M545.85,820.51c-1.05-1-2.12-1.89-3.15-2.84C543.73,818.62,544.8,819.56,545.85,820.51Z" transform="translate(-474.5 -107.42)"/><path class="cls-21" d="M558.37,831.14c-1.16-.94-2.33-1.86-3.47-2.8C556,829.28,557.21,830.2,558.37,831.14Z" transform="translate(-474.5 -107.42)"/><path class="cls-21" d="M552,825.85c-1.11-.94-2.23-1.87-3.31-2.81C549.75,824,550.87,824.91,552,825.85Z" transform="translate(-474.5 -107.42)"/><path class="cls-6" d="M1357.67,366.71c1.3-66.64-42.11-133.59-130.18-184.44-172.86-99.8-452.19-99.79-623.93,0C518,232,475.27,297.16,475.36,362.35c0-.21,0-.42,0-.62l-.85,299.61c-.11,41.28,16.94,82.59,51.12,120-76.85-85.08-65.6-189.83,34-268.81l-1.27-1,1.27,1a370.07,370.07,0,0,1,43.92-29.74c171.74-99.8,451.07-99.8,623.93,0a373.41,373.41,0,0,1,46,31.1c.92-.72,1.8-1.46,2.7-2.19-.9.73-1.78,1.47-2.7,2.2,50.76,40.44,78.6,87.51,83.48,135.2l.81-284.91C1357.73,365.07,1357.69,365.89,1357.67,366.71Z" transform="translate(-474.5 -107.42)"/><path class="cls-21" d="M506.07,775.6c-.68-1-1.37-2-2-3C504.7,773.62,505.39,774.61,506.07,775.6Z" transform="translate(-474.5 -107.42)"/><path class="cls-21" d="M529,804.08c-.91-1-1.83-1.92-2.71-2.89C527.18,802.16,528.1,803.11,529,804.08Z" transform="translate(-474.5 -107.42)"/><path class="cls-21" d="M514.47,787.13c-.76-1-1.54-2-2.28-2.93C512.93,785.18,513.71,786.16,514.47,787.13Z" transform="translate(-474.5 -107.42)"/><path class="cls-21" d="M510.14,781.39c-.71-1-1.45-2-2.15-3C508.69,779.42,509.43,780.41,510.14,781.39Z" transform="translate(-474.5 -107.42)"/><path class="cls-21" d="M523.91,798.48c-.86-1-1.73-1.93-2.56-2.9C522.18,796.55,523.05,797.52,523.91,798.48Z" transform="translate(-474.5 -107.42)"/><path class="cls-9" d="M475.42,685.06c0-1-.06-2.09-.06-3.13C475.36,683,475.4,684,475.42,685.06Z" transform="translate(-474.5 -107.42)"/><path class="cls-21" d="M1357.73,810c-.85.87-1.69,1.73-2.56,2.59C1356,811.72,1356.88,810.86,1357.73,810Z" transform="translate(-474.5 -107.42)"/><path class="cls-21" d="M1355.27,807.13c.84-.88,1.64-1.76,2.46-2.64C1356.91,805.37,1356.11,806.25,1355.27,807.13Z" transform="translate(-474.5 -107.42)"/><path class="cls-21" d="M478,709.63c-.19-1-.4-2.08-.57-3.12C477.6,707.55,477.81,708.59,478,709.63Z" transform="translate(-474.5 -107.42)"/><path class="cls-9" d="M477,703.49c-.15-1-.31-2.08-.44-3.12C476.66,701.41,476.82,702.45,477,703.49Z" transform="translate(-474.5 -107.42)"/><path class="cls-21" d="M489.5,746.05c-.46-1-.93-2-1.36-3.07C488.57,744,489,745,489.5,746.05Z" transform="translate(-474.5 -107.42)"/><path class="cls-9" d="M476.2,697.36c-.11-1.05-.23-2.09-.31-3.13C476,695.27,476.09,696.31,476.2,697.36Z" transform="translate(-474.5 -107.42)"/><path class="cls-21" d="M480.82,721.85c-.28-1-.58-2.07-.84-3.11C480.24,719.78,480.54,720.81,480.82,721.85Z" transform="translate(-474.5 -107.42)"/><path class="cls-9" d="M475.68,691.21c-.06-1-.14-2.08-.18-3.13C475.54,689.13,475.62,690.17,475.68,691.21Z" transform="translate(-474.5 -107.42)"/><path class="cls-21" d="M484.65,734c-.37-1-.75-2.05-1.1-3.07C483.9,731.93,484.28,733,484.65,734Z" transform="translate(-474.5 -107.42)"/><path class="cls-21" d="M487,740c-.42-1-.84-2-1.23-3.07C486.11,738,486.53,739,487,740Z" transform="translate(-474.5 -107.42)"/><path class="cls-21" d="M479.28,715.74c-.24-1-.49-2.07-.7-3.11C478.79,713.67,479,714.71,479.28,715.74Z" transform="translate(-474.5 -107.42)"/><path class="cls-21" d="M482.61,727.93c-.33-1-.67-2.06-1-3.1C481.94,725.87,482.28,726.9,482.61,727.93Z" transform="translate(-474.5 -107.42)"/><path class="cls-21" d="M1355.08,818c.9-.84,1.77-1.69,2.65-2.54C1356.85,816.29,1356,817.14,1355.08,818Z" transform="translate(-474.5 -107.42)"/><path class="cls-21" d="M492.3,752c-.5-1-1-2-1.48-3.06C491.29,750,491.8,751,492.3,752Z" transform="translate(-474.5 -107.42)"/><path class="cls-21" d="M1355,823.31c.94-.83,1.85-1.67,2.77-2.51C1356.81,821.64,1355.9,822.48,1355,823.31Z" transform="translate(-474.5 -107.42)"/><path class="cls-21" d="M1354.83,828.57c1-.82,1.93-1.66,2.9-2.48C1356.76,826.91,1355.82,827.75,1354.83,828.57Z" transform="translate(-474.5 -107.42)"/><path class="cls-21" d="M1355,833.53h0c.92-.73,1.8-1.47,2.7-2.2C1356.83,832.06,1355.94,832.8,1355,833.53Z" transform="translate(-474.5 -107.42)"/><path class="cls-21" d="M1357.73,841.7c-1,.74-2,1.48-3,2.22C1355.73,843.18,1356.72,842.44,1357.73,841.7Z" transform="translate(-474.5 -107.42)"/><path class="cls-21" d="M1357.73,846.82c-1,.68-2,1.38-3,2.06C1355.78,848.2,1356.74,847.5,1357.73,846.82Z" transform="translate(-474.5 -107.42)"/><path class="cls-21" d="M572,841.53c-1.29-.93-2.61-1.87-3.88-2.81C569.38,839.66,570.7,840.6,572,841.53Z" transform="translate(-474.5 -107.42)"/><path class="cls-21" d="M565,836.36c-1.22-.93-2.46-1.86-3.66-2.8C562.58,834.5,563.82,835.43,565,836.36Z" transform="translate(-474.5 -107.42)"/><path class="cls-21" d="M1357.73,856.88c-.89.56-1.76,1.12-2.67,1.67C1356,858,1356.84,857.44,1357.73,856.88Z" transform="translate(-474.5 -107.42)"/><path class="cls-21" d="M594.69,856.72c-1.63-1-3.26-2-4.85-3C591.43,854.72,593.06,855.72,594.69,856.72Z" transform="translate(-474.5 -107.42)"/></g><path class="cls-6" d="M1357.73,380.52c0,.83,0,1.65-.06,2.47,0,1,0,2-.07,3s-.11,2.07-.17,3.1-.11,2-.19,3-.2,2.07-.31,3.1-.19,2-.31,3-.28,2.07-.43,3.1-.28,2-.44,3-.37,2.07-.56,3.11-.36,2-.56,3-.45,2.07-.69,3.1-.43,2-.68,3-.54,2.06-.82,3.09-.52,2-.8,3-.63,2.05-.94,3.08-.61,2-.93,2.95-.71,2.05-1.08,3.07-.68,2-1,2.94-.8,2-1.21,3.06-.76,1.95-1.17,2.92-.88,2-1.33,3.05-.85,1.94-1.29,2.9-1,2-1.47,3-.92,1.93-1.41,2.89-1.06,2-1.6,3-1,1.91-1.53,2.86-1.15,2-1.73,3-1.08,1.9-1.64,2.84-1.24,2-1.87,3-1.16,1.88-1.76,2.82-1.33,2-2,3-1.24,1.86-1.88,2.79-1.42,2-2.14,3-1.31,1.84-2,2.76-1.52,2-2.28,3-1.38,1.81-2.1,2.71-1.61,2-2.41,2.94-1.47,1.8-2.23,2.69-1.68,1.93-2.53,2.9-1.55,1.79-2.35,2.67-1.78,1.92-2.68,2.88-1.62,1.76-2.46,2.64-1.87,1.91-2.82,2.86-1.69,1.73-2.56,2.59-2,1.91-3,2.86-1.75,1.7-2.66,2.54-2.07,1.88-3.11,2.82-1.84,1.68-2.78,2.51-2.16,1.85-3.24,2.78-1.91,1.66-2.9,2.48-2.26,1.84-3.4,2.76c-.9.73-1.78,1.47-2.7,2.2l-.29.23c-1.18.94-2.41,1.86-3.62,2.79-1,.77-2,1.55-3,2.32-1.26.95-2.57,1.89-3.86,2.83-1,.74-2,1.48-3,2.22-1.37,1-2.79,1.93-4.18,2.9-1,.68-2,1.38-3,2.06-1.49,1-3,2-4.53,3-1,.63-1.9,1.27-2.87,1.9-1.64,1-3.32,2.08-5,3.12-.9.56-1.77,1.12-2.67,1.67q-3.89,2.38-7.9,4.71-15.58,9.06-32.32,17V877.54q16.69-8,32.32-17c92.17-53.56,134.58-125,127.39-195.09Z" transform="translate(-474.5 -107.42)"/><path class="cls-6" d="M605.59,562.48q-4.07-2.34-8-4.74c-1-.59-1.93-1.2-2.9-1.8-1.63-1-3.26-2-4.85-3l-3.11-2c-1.46-1-3-1.91-4.39-2.88-1.06-.71-2.09-1.44-3.14-2.17-1.37-.94-2.76-1.87-4.1-2.82-1.05-.75-2.07-1.51-3.11-2.26-1.29-.94-2.61-1.87-3.88-2.82-1-.78-2.05-1.57-3.07-2.35-1.22-.93-2.46-1.86-3.66-2.8-.59-.46-1.15-.93-1.74-1.4l-1.27-1c-1.16-.93-2.33-1.86-3.47-2.8S553,525.9,552,525.07s-2.23-1.87-3.31-2.82-1.88-1.68-2.82-2.52-2.12-1.89-3.15-2.84-1.81-1.72-2.72-2.58-2-1.9-3-2.85-1.75-1.76-2.63-2.64-1.91-1.9-2.83-2.86-1.68-1.78-2.51-2.67-1.83-1.92-2.71-2.88-1.6-1.81-2.39-2.71-1.73-1.93-2.56-2.91-1.53-1.82-2.29-2.74-1.63-1.94-2.42-2.92-1.45-1.85-2.17-2.78-1.54-2-2.28-2.94-1.36-1.87-2.05-2.8-1.45-2-2.15-3-1.28-1.89-1.92-2.83-1.37-2-2-3-1.21-1.91-1.81-2.86-1.27-2-1.88-3-1.12-1.91-1.68-2.87-1.19-2-1.75-3-1.05-1.93-1.57-2.9-1.1-2-1.62-3-1-2-1.44-2.92-1-2-1.48-3.05-.88-1.95-1.32-2.93-.93-2-1.36-3.07-.8-2-1.19-2.95-.84-2-1.23-3.07-.72-2-1.07-3-.75-2.05-1.1-3.08-.63-2-.94-3-.67-2.06-1-3.09-.55-2-.82-3-.58-2.07-.84-3.1-.47-2-.7-3-.49-2.07-.7-3.11-.39-2-.58-3-.4-2.08-.57-3.13-.31-2-.46-3-.31-2.08-.44-3.12-.22-2-.33-3-.23-2.08-.31-3.12-.14-2-.21-3-.14-2.09-.18-3.13-.06-2-.08-3-.06-2.09-.06-3.13c0-.21,0-.42,0-.63l-.85,299.62c-.11,39.57,15.6,79.16,47,115.37-2.1-2.45-4.15-4.92-6.11-7.41,2,2.49,4,5,6.12,7.41h0c1.35,1.57,2.71,3.13,4.12,4.68,20.32,22.27,46.69,43.18,79.12,61.9Q619.38,870.55,635,878V578C624.92,573.13,615.08,568,605.59,562.48ZM491.68,750.56q3.09,6.39,6.74,12.7Q494.76,756.95,491.68,750.56Z" transform="translate(-474.5 -107.42)"/><path class="cls-10" d="M548.53,352.7c.6-.31,1.19-.6,1.79-.89v2" transform="translate(-474.5 -107.42)"/><line class="cls-22" x1="75.82" y1="250.31" x2="75.82" y2="350.21"/><path class="cls-10" d="M550.32,459.6v2s-.56.41-1.59,1.2" transform="translate(-474.5 -107.42)"/><path class="cls-23" d="M545.55,465.38c-11,9.24-38,34.91-48.64,72.13" transform="translate(-474.5 -107.42)"/><path class="cls-10" d="M496.36,539.5c-.17.64-.34,1.29-.5,1.94v-2" transform="translate(-474.5 -107.42)"/><path class="cls-24" d="M495.87,535.39,496.14,418s19.06-46.71,50.61-64.3" transform="translate(-474.5 -107.42)"/><path class="cls-10" d="M529,425.6a44.78,44.78,0,0,0-13.45,16.59" transform="translate(-474.5 -107.42)"/><line class="cls-10" x1="46.84" y1="312.09" x2="46.84" y2="342.29"/><path class="cls-25" d="M1253.43,424.25V470.8s21.9,10.74,37.18,31.37V455.52S1272,434,1253.43,424.25Z" transform="translate(-474.5 -107.42)"/><path class="cls-25" d="M1284.78,470.25V516.8s21.89,10.74,37.18,31.37V501.52S1303.37,480,1284.78,470.25Z" transform="translate(-474.5 -107.42)"/><polygon class="cls-26" points="632.22 463.69 625.34 468.77 590.64 452.71 597.53 447.82 632.22 463.69"/><polygon class="cls-27" points="655.43 472.99 648.55 478.07 613.85 462.01 620.74 457.12 655.43 472.99"/><path class="cls-28" d="M1132.89,575h7.89c3.14,0,5.35,3.61,2.66,5.93l-16.94,5s-5.09,1.38-6.75-2.67l.4-6Z" transform="translate(-474.5 -107.42)"/><path class="cls-29" d="M1094.33,463.89l3.23,10.95s-14.18-.59-14.13-5.57a135.45,135.45,0,0,1,6.26-38.29Z" transform="translate(-474.5 -107.42)"/><path class="cls-30" d="M1094.33,463.89l3.23,10.95s-8.47-.36-12.29-2.82a77.3,77.3,0,0,1,7.1-22Z" transform="translate(-474.5 -107.42)"/><path class="cls-28" d="M1107,566s3.84-.51,7.62-1c2.58-.32,5.16,3.91,2.91,5.33l-13.3,6.57s-5.79,2-7.65-1.68l.74-8.3Z" transform="translate(-474.5 -107.42)"/><path class="cls-31" d="M1094.49,477.15c3.4,2,27.58,10,29.8,7.27l7.73,53.16-.21,37.64a4.16,4.16,0,0,1-3.45,4.08,12.09,12.09,0,0,1-8.29-.75l-1.88-40-8.27-23-.59,20.69-.38,30.54c-.1,1.94-2.12,3-4,3.3-5.2.8-7.54-1.71-7.54-1.71l-.62-34.2s-.46-8.14-1.25-18.26c-.66-8.42-3.18-18.59-2.82-23.62C1093,488.21,1094.49,477.15,1094.49,477.15Z" transform="translate(-474.5 -107.42)"/><path class="cls-30" d="M1104.31,512.89c2.64,1.18,4.2,1.15,5.61,2.7l-.59,20.69-.38,30.54c-.1,1.94-2.12,3-4,3.3a13,13,0,0,1-2.18.13c2.94-6.64,3.25-14.89,3.19-22.79C1105.85,536,1108.5,523.7,1104.31,512.89Z" transform="translate(-474.5 -107.42)"/><path class="cls-30" d="M1094.49,477.15c3.4,2,27.58,10,29.8,7.27l7.73,53.16-.21,37.64a4.16,4.16,0,0,1-1.31,3c-4.49-18-2.25-36-5.34-54.35-2.49-14.79-13.59-22.16-26.5-27.77a7.68,7.68,0,0,0-5.88-.18,24.6,24.6,0,0,1-.09-3.56C1093,488.21,1094.49,477.15,1094.49,477.15Z" transform="translate(-474.5 -107.42)"/><path class="cls-29" d="M1089,433.27c1.09-5.95,5.6-6.61,5.6-6.61s8.41-2.64,15-.41c13.87,4.73,13.64,6.68,17.29,9.29,4.23,3-.8,18.52-1.29,24.68-.73,9.16,3.31,36.62,3.31,36.62a15.66,15.66,0,0,1-10.56,5.35,46.93,46.93,0,0,1-27-5.17s1.46-19.18,1.21-24S1088,438.78,1089,433.27Z" transform="translate(-474.5 -107.42)"/><path class="cls-30" d="M1120,477.07a135.14,135.14,0,0,1,5.93-41.44,5.32,5.32,0,0,0,.14-.67c.24.19.48.38.76.58,4.23,3-.8,18.52-1.29,24.68-.73,9.16,3.31,36.62,3.31,36.62a15.66,15.66,0,0,1-10.56,5.35c-1.06.11-2.11.17-3.13.21C1120.88,495.5,1120,485.5,1120,477.07Z" transform="translate(-474.5 -107.42)"/><path class="cls-32" d="M1110.45,428c.34,3.21-9.2,2.4-9.54-.82l-.16-9.62,11.65.1Z" transform="translate(-474.5 -107.42)"/><path class="cls-9" d="M1111.49,424.8l.48,3.35c.34,3.21-11.51,1.9-11.86-1.32l.75-2.46A21,21,0,0,0,1111.49,424.8Z" transform="translate(-474.5 -107.42)"/><path class="cls-28" d="M1100.51,424.25c1.33,3.16,8,3,11.48,1.26l2.44,2.48c-1.89,3.39-10.06,4.16-13.73,1a2.88,2.88,0,0,1-.75-3Z" transform="translate(-474.5 -107.42)"/><path class="cls-32" d="M1114.29,415.86c.83,4.92-2.21,7.64-6.88,8.43,0,0-9.09-1.23-9.91-6.07l-2.49-8.79,17.19-6Z" transform="translate(-474.5 -107.42)"/><path class="cls-33" d="M1107.11,398.05c4.12,1,10.83,3.91,5.69,8.95,0,0-2.29,1-1.66,4.77s-2.7,8.21-5.26,11c-1.86,2.06-6-.13-6-.13s-6.79-5.51-5.81-17C1094.66,398.61,1104.2,397.33,1107.11,398.05Z" transform="translate(-474.5 -107.42)"/><path class="cls-32" d="M1111.71,411.87l.69,4.09c-1.58,1.08-3.38-1-3.47-3.19C1108.81,409.84,1111.71,411.87,1111.71,411.87Z" transform="translate(-474.5 -107.42)"/><path class="cls-32" d="M1178.9,428.74s1,.73-.31,2.18l-4.66,2.52a9.51,9.51,0,0,1,.89,5.18l-2.43,3.1a1.63,1.63,0,0,1-1-1.09s-4.24,1.84-5.43,1.09l-5.1,1.89,0-6.18,6.42-3.42Z" transform="translate(-474.5 -107.42)"/><path class="cls-29" d="M1116.35,432.83a8.38,8.38,0,0,1,7.55.72c1.69.95,5.82,4.37,15.81,10.12a5.93,5.93,0,0,0,5.2,0l16.52-7s3.14,1.25,3.58,4.21c.41,2.74-.07,3.25-.07,3.25l-18.45,12.06a6.87,6.87,0,0,1-5.22,1c-6-1.29-19.28-5.51-23.89-6.89C1110.45,448.26,1109.84,435.65,1116.35,432.83Z" transform="translate(-474.5 -107.42)"/><path class="cls-30" d="M1143,450.4c2.46-.28,14.83-7.22,20.19-10a8,8,0,0,0,1.36-.89,4.56,4.56,0,0,1,.49,1.43c.41,2.74-.07,3.25-.07,3.25l-18.45,12.06a6.87,6.87,0,0,1-5.22,1c-6-1.29-19.28-5.51-23.89-6.89a5.09,5.09,0,0,1-.54-.22A126.73,126.73,0,0,0,1143,450.4Z" transform="translate(-474.5 -107.42)"/><polygon class="cls-34" points="256.23 579 289.91 593.6 295.17 590.98 262.5 574.55 256.23 579"/><polygon class="cls-35" points="236.76 588.52 270.44 603.12 275.7 600.5 243.03 584.08 236.76 588.52"/><path class="cls-36" d="M748.94,704.83l-6.16-6.17L734.21,700v3.53a2.82,2.82,0,0,0,1.44,2.46l10.8,6s4.85,1.34,6.6-2.34l0-.25C752.71,707.72,750.12,706,748.94,704.83Z" transform="translate(-474.5 -107.42)"/><path class="cls-36" d="M766.64,695.87l-6.06-6.06-8.41,1.26v3.48a2.77,2.77,0,0,0,1.41,2.41l5.68,1.94s6.09,4.14,8.76,3.24C770.37,701.35,772.36,698.9,766.64,695.87Z" transform="translate(-474.5 -107.42)"/><path class="cls-37" d="M762.24,612.28c-3.06,1.76-4.35,0-7.27,1.41-7.86,3.87-22.47,2.73-22.66-2.35l.62,46.22,1.28,43.25c8.65,3.91,10.72-1.31,10.72-1.31l4-63.74,3.28,57c7.92,2.34,10.22-2.14,10.22-2.14.58-51.09.29-51.07-.15-60.74C762.07,626.13,762.24,612.28,762.24,612.28Z" transform="translate(-474.5 -107.42)"/><path class="cls-38" d="M744.62,658.52c-1.12,14-2.68,29.91-4.76,43.74,4,0,5.07-2.76,5.07-2.76L749,634.32s3.17-2.32,5.68-4.21c-6.89,2.17-8.37,2.22-8.37,2.22S744.93,654.6,744.62,658.52Z" transform="translate(-474.5 -107.42)"/><path class="cls-38" d="M762.15,617.89c-.59,1.15-3.24,19-3.64,45.55-.1,6.36,0,16.7,0,23.07a49.31,49.31,0,0,1-.32,6.71,6,6,0,0,0,4.22-2.64c.58-51.09.29-51.07-.15-60.74C762.18,628.59,762.15,620.52,762.15,617.89Z" transform="translate(-474.5 -107.42)"/><path class="cls-39" d="M768.75,620.4l-2.53,1.19c-.93.85-1.29,3-1.14,4.26l.19,1.65.34,2.64-.53,2.58s-.16,1.68,1.2,1.33l.72-2-.15,1.69s-1.14,2.15.74,2.37l.33-.53a1.1,1.1,0,0,0,1.27.63,16.36,16.36,0,0,0,1.58-5.11,1.43,1.43,0,0,0,1.18.36l-.1-5.59Z" transform="translate(-474.5 -107.42)"/><path class="cls-40" d="M763.7,565.81c-6.63.48-5.64,11.52-5.64,11.52l1.81,22.51,4.48,22.86A4.58,4.58,0,0,0,769.8,621L768,597.39,769.85,578S769.85,565.37,763.7,565.81Z" transform="translate(-474.5 -107.42)"/><path class="cls-38" d="M765,585.34a15.09,15.09,0,0,1,.39-3.26,12.68,12.68,0,0,1-5.89,1.36c-.32,0-.62,0-.93,0l1.32,16.44,4.48,22.86a4.55,4.55,0,0,0,4.66-.82C763.93,601.2,765,590.12,765,585.34Z" transform="translate(-474.5 -107.42)"/><path class="cls-40" d="M760.74,562.6l-4.4-.86-5.31-.12-9.36,3.78c-4.39,1.38-7.06,4.28-7.71,8.84l-2.35,43.65s-.5,2.75,13.69,3.61a38.37,38.37,0,0,0,17.28-3.07c.43-7.65-.85-14.24.88-21.73,2.17-9.41,4.49-18.09,4.54-27.64a25.24,25.24,0,0,1-6.36-4.56A3.2,3.2,0,0,1,760.74,562.6Z" transform="translate(-474.5 -107.42)"/><path class="cls-39" d="M750.91,562.25a5.62,5.62,0,1,0,11,2.17l1.78-9-10.21-2Z" transform="translate(-474.5 -107.42)"/><path class="cls-41" d="M756.8,554.64a90,90,0,0,1-5.9,9.69,5.61,5.61,0,0,0,11,.09l1.78-9-6.65-1.31C757,554.28,756.9,554.46,756.8,554.64Z" transform="translate(-474.5 -107.42)"/><path class="cls-9" d="M751.76,559.34l-3.16,3.26a13.29,13.29,0,0,0,7.56,10l2.21-4C752.27,565.89,751.76,559.34,751.76,559.34Z" transform="translate(-474.5 -107.42)"/><path class="cls-9" d="M758.37,568.6a17.12,17.12,0,0,1,2.76,3.66s2.77-6.46,1-9A6.67,6.67,0,0,1,758.37,568.6Z" transform="translate(-474.5 -107.42)"/><polygon class="cls-42" points="284.53 461.9 283.37 462.06 282.02 464.52 283.39 467.09 285.74 467.17 286.63 464.83 285.71 463.33 284.53 461.9"/><path class="cls-39" d="M751.45,554.76c-1.3,4.4,5.38,8.91,5.83,9.15,3.4,1.8,7.06,0,8.38-4.5L769,548.15l-16-1.78Z" transform="translate(-474.5 -107.42)"/><path class="cls-43" d="M752.71,541.62c-2.4,1.69-2.52,6.5-2.61,8.74a16,16,0,0,0,2.29,8.82l2.05-7.39.53,1.43,1-.36s.9-3.53,1.08-4.05c.62-1.77,11.39,1.12,11.39,1.12s5.3-.79-.06-6.87C763.49,537.49,757.64,538.15,752.71,541.62Z" transform="translate(-474.5 -107.42)"/><path class="cls-39" d="M752.07,551.49c-.71,1.45.13,4.49,1.6,4.1l1-3.11S753.33,548.89,752.07,551.49Z" transform="translate(-474.5 -107.42)"/><path class="cls-40" d="M743.08,566.69c-6.28-2.16-10.3,8.12-10.3,8.12l-5.89,20.71a7.53,7.53,0,0,0,0,4.41c.81,2.48,2.84,5.66,7.85,4.58l2-4.59L743,580.71S747.88,568.34,743.08,566.69Z" transform="translate(-474.5 -107.42)"/><path class="cls-38" d="M736.79,599.92,743,580.71a39.57,39.57,0,0,0,1.94-7c-.68,1.07-6.39,14.67-7.33,17.9C736,597.13,736.79,599.92,736.79,599.92Z" transform="translate(-474.5 -107.42)"/><path class="cls-39" d="M763.26,563.12s-2.48,2-4,3-2.84-1.51-2.84-1.51l-.53-3.25a2.73,2.73,0,0,0-2-1.06l.17,4.5-2,7,4.72,4.51,4.69-2.43a1.89,1.89,0,0,0,1-1.89l-.54-5.11,1.48-1.86,2.22-2.81C764.27,561.29,763.26,563.12,763.26,563.12Z" transform="translate(-474.5 -107.42)"/><path class="cls-40" d="M752.05,571.8c-13.28,21.58-22.28,25.44-22.28,25.44l5,7.27c11.86-4.07,22.48-27.73,22.48-27.73A5.58,5.58,0,0,0,752.05,571.8Z" transform="translate(-474.5 -107.42)"/><path class="cls-38" d="M754.2,572.39a68.17,68.17,0,0,1-10.69,22.89,91.76,91.76,0,0,1-8.73,9.23c11.85-4.07,22.47-27.73,22.47-27.73A5.46,5.46,0,0,0,754.2,572.39Z" transform="translate(-474.5 -107.42)"/></g></g></svg>