<svg id="图层_1" data-name="图层 1" xmlns="http://www.w3.org/2000/svg" viewBox="0 0 142.42 23.79"><defs><style>.cls-1{fill:#fff;}</style></defs><title>logo白色</title><path class="cls-1" d="M45.51,26.35A16.11,16.11,0,0,0,40,23.9c-3.57,1.41-8.65,6.22-15.38,6.22A14.89,14.89,0,0,1,14.43,26a14.81,14.81,0,0,1-4.12-7.75,11.79,11.79,0,0,0,9.31,6.13c-2.8-2.08-4.74-5.83-6.05-8.31-2-3.77-4.48-8.69-7.88-9.53,9.45-.29,15.93,3.82,20.69,12.34C29.73,14,33.25,6.89,43,6.33c-3.4,2-5,9.5-8,14.39a8.8,8.8,0,0,1,6.53,2.63Z" transform="translate(-5.69 -6.33)"/><path class="cls-1" d="M59.39,9.72A7,7,0,0,1,64.51,12l-2.06,2.2a4,4,0,0,0-3.06-1.48,4.48,4.48,0,0,0-4.2,4.74,4.48,4.48,0,0,0,4.2,4.74A4.13,4.13,0,0,0,63,20H59.38V16.76h6.83V20a7.28,7.28,0,0,1-6.82,5.22c-4,0-7.22-3.56-7.22-7.75S55.35,9.72,59.39,9.72Z" transform="translate(-5.69 -6.33)"/><path class="cls-1" d="M74.54,9.72V22.21h6.69v3H71.52V9.72Z" transform="translate(-5.69 -6.33)"/><path class="cls-1" d="M91.69,9.72c4,0,7.22,3.56,7.22,7.75s-3.18,7.75-7.22,7.75-7.22-3.56-7.22-7.75S87.64,9.72,91.69,9.72Zm-4.21,7.75a4.24,4.24,0,1,0,8.41,0,4.24,4.24,0,1,0-8.41,0Z" transform="translate(-5.69 -6.33)"/><path class="cls-1" d="M114.93,11.66l-2.2,2.05a3.85,3.85,0,0,0-3.28-.88,1.63,1.63,0,0,0-1,.64,1.58,1.58,0,0,0-.25,1,1.29,1.29,0,0,0,.8,1.16,14,14,0,0,0,2.13.56,5.33,5.33,0,0,1,2.79,1.35,4.51,4.51,0,0,1,1,3.85v.09l0,.08a5,5,0,0,1-5.2,3.64,6.68,6.68,0,0,1-5.41-3.31l2.62-1.49a3.92,3.92,0,0,0,3,1.79,1.73,1.73,0,0,0,1.78-.66,1.68,1.68,0,0,0,.12-1.71,1.86,1.86,0,0,0-1.32-.69,14.55,14.55,0,0,1-2.66-.74,4.35,4.35,0,0,1-2.41-2.68l0-.06v-.06a4.92,4.92,0,0,1,.62-3.8,4.65,4.65,0,0,1,2.81-1.88,6.58,6.58,0,0,1,1.65-.19A6.25,6.25,0,0,1,114.93,11.66Z" transform="translate(-5.69 -6.33)"/><path class="cls-1" d="M123.26,9.72v5l3.72-5h3.77L125,17.34l7.16,7.88h-4.07l-4.87-5.36v5.36h-3V9.72Z" transform="translate(-5.69 -6.33)"/><path class="cls-1" d="M139.45,9.72v9.21c0,2.51,1.4,3.28,2.83,3.28s2.82-.77,2.82-3.28V9.72h3v9.21a5.85,5.85,0,1,1-11.67,0V9.72Z" transform="translate(-5.69 -6.33)"/></svg>